<?xml version="1.0" encoding="iso-8859-1"?>
<!-- Uploaded to: SVG Repo, www.svgrepo.com, Generator: SVG Repo Mixer Tools -->
<svg height="800px" width="800px" version="1.1" id="Layer_1" xmlns="http://www.w3.org/2000/svg" xmlns:xlink="http://www.w3.org/1999/xlink" 
	 viewBox="0 0 512 512" xml:space="preserve">
<path style="fill:#C8DB86;" d="M457.263,30.853c-0.008-0.008-208.458,208.442-208.458,208.442l34.561,34.561L457.263,99.962
	C476.345,80.879,476.345,49.936,457.263,30.853z"/>
<path style="fill:#D4ED85;" d="M428.135,70.864l-173.88,173.881l-39.996-39.996L388.154,30.853
	c19.082-19.082,50.011-19.082,69.101-0.008l-5.822,5.822C454.437,39.672,443.98,55.02,428.135,70.864z"/>
<g>
	<path style="fill:#594B44;" d="M369.395,34.5c-3.216-3.216-8.43-3.216-11.645,0c-3.216,3.216-3.216,8.43,0,11.645l7.529,7.529
		l11.645-11.645L369.395,34.5z"/>
	<path style="fill:#594B44;" d="M350.076,53.82c-3.216-3.216-8.43-3.216-11.645,0c-3.216,3.216-3.216,8.43,0,11.645l7.529,7.529
		l11.645-11.645L350.076,53.82z"/>
	<path style="fill:#594B44;" d="M319.112,73.139c-3.216,3.216-3.216,8.43,0,11.645l7.529,7.529l11.645-11.645l-7.529-7.529
		C327.541,69.924,322.327,69.924,319.112,73.139z"/>
	<path style="fill:#594B44;" d="M299.792,92.459c-3.216,3.216-3.216,8.43,0,11.645l7.529,7.529l11.645-11.645l-7.529-7.529
		C308.222,89.243,303.008,89.243,299.792,92.459z"/>
	<path style="fill:#594B44;" d="M280.473,111.778c-3.216,3.216-3.216,8.43,0,11.645l7.529,7.529l11.645-11.645l-7.529-7.529
		C288.902,108.563,283.688,108.563,280.473,111.778z"/>
	<path style="fill:#594B44;" d="M261.153,131.098c-3.216,3.216-3.216,8.43,0,11.645l7.529,7.529l11.645-11.645l-7.529-7.529
		C269.583,127.882,264.369,127.882,261.153,131.098z"/>
	<path style="fill:#594B44;" d="M241.834,150.417c-3.216,3.216-3.216,8.43,0,11.645l7.529,7.529l11.645-11.645l-7.529-7.529
		C250.263,147.202,245.049,147.202,241.834,150.417z"/>
	<path style="fill:#594B44;" d="M222.514,169.737c-3.216,3.216-3.216,8.43,0,11.645l7.529,7.529l11.645-11.645l-7.529-7.529
		C230.944,166.521,225.73,166.521,222.514,169.737z"/>
	<path style="fill:#594B44;" d="M470.148,16.997c-3.216-3.216-8.43-3.216-11.645,0l-7.295,7.295l11.645,11.645l7.295-7.295
		C473.364,25.425,473.364,20.212,470.148,16.997z"/>
	<path style="fill:#594B44;" d="M446.936,10.502c0.868-4.464-2.045-8.786-6.509-9.656c-4.464-0.868-8.786,2.045-9.656,6.509
		l-1.895,9.737l16.165,3.147L446.936,10.502z"/>
	<path style="fill:#594B44;" d="M408.491,0.153c-4.464,0.868-7.378,5.192-6.509,9.656l1.849,9.501l16.165-3.147l-1.849-9.501
		C417.277,2.202,412.955-0.715,408.491,0.153z"/>
	<path style="fill:#594B44;" d="M379.544,13.997c-3.789,2.515-4.82,7.626-2.304,11.415l5.615,8.455l13.719-9.109l-5.615-8.455
		C388.441,12.515,383.333,11.482,379.544,13.997z"/>
	<path style="fill:#594B44;" d="M487.247,47.667c-0.87-4.463-5.192-7.378-9.656-6.509l-9.737,1.895l3.147,16.165l9.737-1.895
		C485.202,56.454,488.116,52.13,487.247,47.667z"/>
	<path style="fill:#594B44;" d="M487.94,79.603c0.868-4.465-2.048-8.786-6.509-9.656l-9.501-1.849l-3.147,16.165l9.501,1.849
		C482.748,86.98,487.072,84.065,487.94,79.603z"/>
	<path style="fill:#594B44;" d="M474.096,108.549c2.515-3.789,1.48-8.897-2.304-11.415l-8.455-5.615l-9.109,13.719l8.455,5.615
		C466.471,113.37,471.581,112.338,474.096,108.549z"/>
	<path style="fill:#594B44;" d="M453.593,118.698l-7.529-7.529l-11.645,11.645l7.529,7.529c3.216,3.216,8.43,3.216,11.645,0
		C456.809,127.128,456.809,121.914,453.593,118.698z"/>
	<path style="fill:#594B44;" d="M434.273,138.018l-7.529-7.529l-11.645,11.645l7.529,7.529c3.216,3.216,8.43,3.216,11.645,0
		C437.489,146.447,437.489,141.233,434.273,138.018z"/>
	<path style="fill:#594B44;" d="M414.954,157.337l-7.529-7.529l-11.645,11.645l7.529,7.529c3.216,3.216,8.43,3.216,11.645,0
		C418.17,165.767,418.171,160.553,414.954,157.337z"/>
	<path style="fill:#594B44;" d="M395.634,176.657l-7.529-7.529l-11.645,11.645l7.529,7.529c3.216,3.216,8.43,3.216,11.645,0
		C398.85,185.085,398.851,179.872,395.634,176.657z"/>
	<path style="fill:#594B44;" d="M376.316,195.976l-7.529-7.529l-11.645,11.644l7.529,7.529c3.216,3.216,8.43,3.216,11.645,0
		C379.532,204.405,379.532,199.192,376.316,195.976z"/>
	<path style="fill:#594B44;" d="M356.996,215.295l-7.529-7.529l-11.645,11.645l7.529,7.529c3.216,3.216,8.43,3.216,11.645,0
		C360.212,223.724,360.212,218.511,356.996,215.295z"/>
	<path style="fill:#594B44;" d="M337.677,234.615l-7.529-7.529l-11.645,11.645l7.529,7.529c3.216,3.216,8.43,3.216,11.645,0
		C340.892,243.044,340.893,237.831,337.677,234.615z"/>
	<path style="fill:#594B44;" d="M318.357,253.935l-7.529-7.529l-11.645,11.645l7.529,7.529c3.216,3.216,8.43,3.216,11.645,0
		C321.573,262.363,321.573,257.15,318.357,253.935z"/>
</g>
<path style="fill:#5D734F;" d="M285.685,283.191l-11.645-11.645L451.426,94.162c15.851-15.851,15.851-41.643,0-57.494
	s-41.643-15.851-57.494,0L216.546,214.052l-11.645-11.645L382.286,25.023c22.272-22.273,58.512-22.272,80.785,0
	s22.272,58.511,0,80.784L285.685,283.191z"/>
<path style="fill:#D35B38;" d="M166.678,446.458l-59.132,59.132c-8.547,8.547-22.521,8.547-31.068,0l-46.665-46.68
	c-3.843-3.843-6.459-11.396-5.807-16.784l14.82-123.521l30.339-0.715l-0.715,30.339l-11.024,91.731l34.578,34.578l66.903-66.903
	L166.678,446.458z"/>
<path style="fill:#FD830C;" d="M285.68,327.439c15.441-15.441,15.441-40.454,0-55.896l-23.289-23.289L143.389,423.168l23.289,23.289
	L285.68,327.439z"/>
<path style="fill:#FE9837;" d="M262.391,304.15L143.389,423.168L38.826,318.606c-15.425-15.425-15.425-40.454-0.008-55.888
	l91.071-91.071c15.441-15.441,40.461-15.433,55.896,0l76.607,76.607C277.831,263.696,277.831,288.709,262.391,304.15z"/>
<path style="fill:#594B44;" d="M230.71,307.075L59.826,136.191c-3.216-3.216-3.216-8.43,0-11.645c3.216-3.216,8.43-3.216,11.645,0
	l170.884,170.884c3.216,3.216,3.216,8.43,0,11.645C239.14,310.29,233.926,310.29,230.71,307.075z"/>
<g>
	<path style="fill:#D35B38;" d="M158.521,408.032l-23.297-23.297c-3.216-3.216-3.216-8.43,0-11.645c3.216-3.216,8.43-3.216,11.645,0
		l23.297,23.297c3.216,3.216,3.216,8.43,0,11.645C166.95,411.247,161.736,411.247,158.521,408.032z"/>
	<path style="fill:#D35B38;" d="M179.482,387.071l-23.297-23.297c-3.216-3.216-3.216-8.43,0-11.645c3.216-3.216,8.43-3.216,11.645,0
		l23.297,23.297c3.216,3.216,3.216,8.43,0,11.645C187.911,390.287,182.697,390.287,179.482,387.071z"/>
	<path style="fill:#D35B38;" d="M200.442,366.11l-23.297-23.297c-3.216-3.216-3.216-8.43,0-11.645c3.216-3.216,8.43-3.216,11.645,0
		l23.297,23.297c3.216,3.216,3.216,8.43,0,11.645C208.871,369.326,203.658,369.326,200.442,366.11z"/>
</g>
</svg>